<?xml version="1.0" encoding="UTF-8"?>
<svg id="Laag_1" data-name="Laag 1" xmlns="http://www.w3.org/2000/svg" viewBox="0 0 222.38 277.22">
  <defs>
    <style>
      .cls-1 {
        fill: #fff;
      }

      .cls-2 {
        fill: #008d36;
      }
    </style>
  </defs>
  <path class="cls-2" d="m55,183.12S4.61,258.28,9.86,263.96s-9.1-8.13-9.1-8.13c0,0,50.39-78.2,51.03-76.78.64,1.42,74.24-104,154.26-158.85C286.07-34.63,46.02,441.12,44.48,216.65"/>
  <g>
    <path class="cls-2" d="m203.48,1.13C-83.53,58.53,17.1,190.38,17.1,190.38"/>
    <path class="cls-2" d="m192.42,12.88s29.26-21.61-2.82-8.85"/>
  </g>
  <path class="cls-1" d="m132.99,63.63l-59.57-3.27-6.8,7.02s49.87,16.71,49.54,15.91-37.9,46.37-37.9,46.37l-18.6-2.47-4.85,5.01,15.53,12.12-1.47,4.56,5.76-1.38,10.61,14.15,5.45-6.39s-4.06-15.59-2.17-17.16,44.7-38.81,44.7-38.81l16.71,49.7,7.04-7.27-3.51-59.26c36.51-33.14,22.39-44.05,22.39-44.05,0,0-11.33-11.9-42.84,25.22Z"/>
</svg>